<?xml version="1.0" encoding="UTF-8"?>
<!DOCTYPE svg PUBLIC "-//W3C//DTD SVG 1.1//EN" "http://www.w3.org/Graphics/SVG/1.1/DTD/svg11.dtd">
<!-- Creator: CorelDRAW -->
<svg xmlns="http://www.w3.org/2000/svg" xml:space="preserve" width="23.2594mm" height="24.0896mm" version="1.1" style="shape-rendering:geometricPrecision; text-rendering:geometricPrecision; image-rendering:optimizeQuality; fill-rule:evenodd; clip-rule:evenodd"
viewBox="0 0 334.09 346.01"
 xmlns:xlink="http://www.w3.org/1999/xlink"
 xmlns:xodm="http://www.corel.com/coreldraw/odm/2003">
 <defs>
  <style type="text/css">
   <![CDATA[
    .fil0 {fill:#1D9CFE;fill-rule:nonzero}
   ]]>
  </style>
 </defs>
 <g id="Layer_x0020_1">
  <metadata id="CorelCorpID_0Corel-Layer"/>
  <g id="_1932024773760">
   <path class="fil0" d="M260.07 262.68c8.57,-18.32 13.32,-38.5 13.54,-59.29 -3.23,0.8 -6.58,1.69 -10.03,2.67 2.3,19.33 0.98,38.47 -3.51,56.62z"/>
   <path class="fil0" d="M210.63 277.84c8.93,-17.5 13.79,-37.17 13.65,-57.51 -3.1,1.41 -6.21,2.89 -9.31,4.46 2.08,18.22 0.45,36.18 -4.34,53.05z"/>
   <path class="fil0" d="M137.26 34.35c7.06,-1.61 14.12,-2.65 21.13,-3.14 -9.15,8.82 -17.21,17.79 -24.34,26.72 -13.56,-0.41 -27.41,1.1 -41.2,4.75 -6.72,1.78 -13.19,4.01 -19.41,6.64 18.03,-3.79 36.06,-4.32 53.44,-2 -7.24,9.91 -13.36,19.69 -18.52,29.06 -12.1,-0.88 -24.52,-0.01 -36.96,2.83 -5.88,1.34 -11.58,3.09 -17.05,5.18 16.86,-2.94 33.6,-2.66 49.57,0.42 -19.62,38.86 -22.78,68.81 -22.78,68.81 7.37,-24.66 19.85,-46.88 34.05,-66.14 2.34,-3.18 4.73,-6.27 7.15,-9.28 7.96,-9.9 16.26,-18.9 24.36,-26.92 3.8,-3.76 7.55,-7.3 11.21,-10.61 13.88,-12.59 26.35,-21.95 34.39,-27.6 19.62,3.57 38.1,11.36 54.21,22.62 -15.28,7.22 -28.93,15.28 -41.09,23.76 -12.67,-7.84 -26.55,-13.72 -41.12,-17.34 -3.55,3.22 -7.52,6.9 -11.67,10.87 13.42,4.15 26.21,10.05 38.03,17.51 -9.86,7.9 -18.57,15.99 -26.21,23.96 -11.47,-7.01 -24.06,-12.19 -37.31,-15.23 -2.82,3.22 -5.48,6.4 -7.87,9.48 12.48,3.93 24.3,9.62 35.13,16.83 -28.14,32.82 -38.32,60.89 -38.32,60.89 44.41,-75.16 139.08,-109.03 151.03,-113.07 9.52,9.95 17.62,21.42 23.87,34.13 -15.04,4.02 -28.85,8.98 -41.49,14.54 -6.46,-9.69 -14.01,-18.47 -22.44,-26.21 -5.36,2.75 -11.01,5.82 -16.83,9.21 8.47,7.37 16.2,15.67 23.01,24.79 -11.72,6.1 -22.28,12.65 -31.71,19.33 -6.3,-8.95 -13.72,-16.97 -22,-23.89 -4.17,3.11 -8.32,6.38 -12.43,9.82 8.15,6.9 15.53,14.76 21.94,23.47 -35.84,28.64 -51.71,56.45 -51.71,56.45 51.25,-60.35 137.48,-80.21 162.39,-84.84 0.7,2.44 1.34,4.92 1.92,7.43 2.56,11.21 3.66,22.4 3.44,33.4 -11.86,2.21 -22.92,5.12 -33.21,8.55 -0.76,-4.85 -1.78,-9.72 -3.07,-14.57 -1.8,-6.81 -4.07,-13.37 -6.75,-19.67 -5,1.55 -10.27,3.31 -15.72,5.28 5.49,10.42 9.91,21.62 13.05,33.49l0 0.02c-13.71,5.42 -25.87,11.7 -36.54,18.25 -0.46,-3.02 -1.02,-6.04 -1.71,-9.07 -2.24,-9.82 -5.59,-19.09 -9.88,-27.74 -4.38,2.18 -8.78,4.52 -13.17,7 6.32,11.21 11.16,23.51 14.21,36.68 -33.52,23.18 -49.14,47.13 -49.14,47.13 44.54,-46.53 114.08,-60.37 139.82,-64.03 -9.41,52.56 -49.23,97 -104.56,109.65 -1.25,0.28 -2.49,0.55 -3.74,0.8 5.51,-0.6 11.03,-1.52 16.57,-2.78 77.63,-17.74 126.17,-95.04 108.44,-172.67 -13.8,-60.41 -63.69,-103.21 -121.72,-110.86 -7.07,-0.93 -14.26,-1.34 -21.52,-1.2 -9.72,0.19 -19.57,1.37 -29.42,3.62 -48.97,11.19 -86.36,46.09 -102.84,89.81 17.5,-36.32 50.75,-64.63 93.11,-74.31z"/>
   <path class="fil0" d="M46.96 293.15c0,0 3.38,-1.45 7.01,0.14 3.63,1.59 2.64,9.01 2.64,9.01 0,0 3.12,-0.71 5.19,0.29 2.07,1 2.95,5.68 2.63,7.29 -0.31,1.61 -2.82,5.4 -2.82,5.4 0,0 0.62,-0.7 1.69,1.94 1.07,2.64 -0.65,7.18 -1.47,8.21 -0.82,1.03 -2.17,4.17 -2.52,8.2 -0.35,4.02 3.68,4.97 4.98,3.76 0.49,-0.45 1.17,-5.05 1.89,-7.95 0.72,-2.9 -0.07,-6 -0.43,-10.27 -0.35,-4.27 0.46,-6.39 1.02,-6.05 0.56,0.34 1.94,4.06 2.58,5.53 0.63,1.47 2.11,7.83 0.59,12.04 -1.52,4.21 -2.07,17.35 4.52,9.39 6.59,-7.96 5.63,-32.29 5.63,-32.29 3.83,6.07 6.52,11.4 1.43,28.06 -2.98,9.77 3.1,11.02 6.55,9.76 3.45,-1.26 5.51,-16.86 7.89,-24.3 2.38,-7.44 -0.55,-17.62 -1.53,-18.94 -0.98,-1.32 -6.52,-16.86 -8.2,-21.01 -1.68,-4.15 -5.14,-6.03 -7.83,-7.07 -2.69,-1.04 -9.16,4.74 -14.98,5.27 -5.82,0.53 -8.9,-1.95 -8.71,-7.49 0.19,-5.53 13.01,-15.01 13.01,-15.01 -7.26,-9.59 -20.49,-17.83 -26.7,-28.05 -7.04,-11.6 -9.5,-14.77 -16.39,-37.08 -13.67,-69.8 21.97,-142.27 89.71,-172.41 54.29,-24.15 114.99,-14.8 158.93,19.14 -47.36,-39.34 -114.74,-50.91 -174.8,-24.2 -71.98,32.02 -114.77,115.74 -92.61,195.71 1.34,6.3 4.16,18.27 8.23,30.35 7.58,22.47 18.17,46.43 18.17,46.43 0,0 5.48,-2.06 10.1,-1.31 4.62,0.75 4.61,7.51 4.61,7.51z"/>
   <path class="fil0" d="M60.66 272.91c1.49,2.27 9.71,-0.95 15.39,-3.96 5.68,-3.02 14.98,6.63 14.98,6.63 0,0 10.18,19.93 12.86,28.07 2.69,8.14 -5.27,30.99 -5.27,30.99 -0.87,1.1 51.82,12.46 90.14,2.66l0.14 -0.04c16.36,-3.67 33.82,-9.61 46.95,-15.46 60.06,-26.72 95.74,-86.4 98.23,-147.92 -4.21,55.37 -37.37,107.96 -92.2,130.87 -23.97,10.02 -38.79,10.73 -38.79,10.73 -31.09,2.64 -54.31,-4.67 -84.65,-14.1l0 0 -9.17 -18.23c0,0 -10.4,-20.19 -16.72,-24.05 -6.32,-3.87 -21.17,-1.52 -21.17,-1.52 -2.57,1.23 -6.72,7.07 -8.56,9.14 -1.84,2.07 -3.66,3.95 -2.17,6.22z"/>
   <path class="fil0" d="M41.96 294.03c3.64,-1.45 1.08,-4.69 0.6,-4.99 -0.49,-0.3 -7.68,-1.39 -11.97,1.64 -4.28,3.03 0.47,6.12 1.7,6.51 1.23,0.39 9.67,-3.17 9.67,-3.17z"/>
   <path class="fil0" d="M36.51 308.8c3.82,-5 12.02,-5.76 15.15,-6.91 3.13,-1.15 1.76,-4.45 -0.06,-5.33 -1.83,-0.88 -14.45,2.11 -15.73,2.94 -1.28,0.84 -2.84,1.94 -2.94,4.82 -0.1,2.88 3.59,4.48 3.59,4.48z"/>
   <path class="fil0" d="M52.34 315.71c4.28,-0.93 9.83,-3.55 9.62,-6.02 -0.21,-2.48 -1.92,-4.48 -6.59,-4.57 -4.67,-0.09 -14.58,2.22 -16.1,5.43 -1.52,3.22 -2.42,8.14 3.72,10.21 0,0 5.07,-4.12 9.35,-5.05z"/>
   <path class="fil0" d="M59.39 317.56c-1.81,-1.53 -4.51,0.07 -4.51,0.07 0,0 -9.34,4.09 -10.76,6.11 -1.42,2.02 1.93,5.51 3.86,6.64 1.93,1.12 6.33,-1.36 10.39,-5.5 4.06,-4.13 2.83,-5.78 1.02,-7.31z"/>
  </g>
 </g>
</svg>
