<?xml version="1.0" encoding="UTF-8"?>
<!DOCTYPE svg PUBLIC "-//W3C//DTD SVG 1.1//EN" "http://www.w3.org/Graphics/SVG/1.1/DTD/svg11.dtd">
<!-- Creator: CorelDRAW -->
<svg xmlns="http://www.w3.org/2000/svg" xml:space="preserve" width="75.3982mm" height="25.1709mm" version="1.1" style="shape-rendering:geometricPrecision; text-rendering:geometricPrecision; image-rendering:optimizeQuality; fill-rule:evenodd; clip-rule:evenodd"
viewBox="0 0 3510.66 1172"
 xmlns:xlink="http://www.w3.org/1999/xlink"
 xmlns:xodm="http://www.corel.com/coreldraw/odm/2003">
 <defs>
  <style type="text/css">
   <![CDATA[
    .fil1 {fill:#FEFEFE;fill-rule:nonzero}
    .fil3 {fill:#E41D2E;fill-rule:nonzero}
    .fil2 {fill:#0E9340;fill-rule:nonzero}
    .fil0 {fill:#1D9CFE;fill-rule:nonzero}
   ]]>
  </style>
   <clipPath id="id0">
    <rect x="1183.5" width="127.75" height="1172"/>
   </clipPath>
    <clipPath id="id1">
     <rect x="1183.5" y="-0" width="127.75" height="1171.99"/>
    </clipPath>
 </defs>
 <g id="Layer_x0020_1">
  <metadata id="CorelCorpID_0Corel-Layer"/>
  <g id="_1931552776160">
   <path class="fil0" d="M843.03 882.81c27.77,-59.38 43.19,-124.79 43.91,-192.2 -10.47,2.6 -21.33,5.47 -32.53,8.65 7.47,62.65 3.18,124.69 -11.38,183.55z"/>
   <path class="fil0" d="M682.79 931.96c28.94,-56.74 44.69,-120.48 44.23,-186.43 -10.05,4.56 -20.12,9.38 -30.17,14.47 6.74,59.05 1.47,117.29 -14.07,171.96z"/>
   <path class="fil0" d="M444.95 142.64c22.89,-5.23 45.78,-8.58 68.51,-10.17 -29.65,28.59 -55.8,57.68 -78.92,86.62 -43.97,-1.32 -88.87,3.57 -133.57,15.41 -21.77,5.76 -42.77,12.99 -62.93,21.52 58.44,-12.28 116.88,-14.02 173.25,-6.48 -23.47,32.14 -43.3,63.83 -60.03,94.21 -39.21,-2.85 -79.49,-0.03 -119.81,9.18 -19.08,4.36 -37.52,10 -55.28,16.8 54.64,-9.54 108.91,-8.61 160.68,1.35 -63.61,125.97 -73.85,223.04 -73.85,223.04 23.9,-79.93 64.35,-151.97 110.38,-214.4 7.59,-10.3 15.34,-20.32 23.19,-30.09 25.8,-32.09 52.69,-61.27 78.97,-87.27 12.31,-12.18 24.48,-23.67 36.34,-34.41 45,-40.82 85.43,-71.16 111.47,-89.45 63.6,11.56 123.5,36.84 175.72,73.34 -49.53,23.42 -93.78,49.55 -133.21,77.01 -41.08,-25.41 -86.05,-44.47 -133.29,-56.22 -11.5,10.45 -24.37,22.38 -37.85,35.23 43.5,13.44 84.96,32.58 123.28,56.75 -31.97,25.61 -60.18,51.83 -84.96,77.66 -37.17,-22.74 -78.01,-39.5 -120.95,-49.37 -9.15,10.43 -17.75,20.74 -25.5,30.74 40.45,12.75 78.78,31.18 113.87,54.55 -91.2,106.4 -124.21,197.4 -124.21,197.4 143.94,-243.65 450.84,-353.44 489.59,-366.52 30.87,32.27 57.11,69.44 77.36,110.64 -48.74,13.02 -93.5,29.1 -134.48,47.12 -20.92,-31.42 -45.41,-59.88 -72.75,-84.96 -17.38,8.93 -35.69,18.87 -54.56,29.86 27.47,23.9 52.52,50.79 74.58,80.36 -38,19.77 -72.21,41.02 -102.78,62.66 -20.44,-29.02 -44.46,-55 -71.3,-77.46 -13.51,10.09 -26.98,20.69 -40.29,31.83 26.43,22.37 50.35,47.86 71.13,76.07 -116.17,92.85 -167.62,183 -167.62,183 166.13,-195.62 445.66,-260.02 526.41,-275.02 2.28,7.92 4.35,15.94 6.21,24.08 8.3,36.32 11.87,72.62 11.16,108.26 -38.44,7.16 -74.3,16.61 -107.66,27.72 -2.47,-15.74 -5.76,-31.5 -9.94,-47.23 -5.85,-22.08 -13.2,-43.34 -21.89,-63.76 -16.21,5.03 -33.29,10.72 -50.97,17.1 17.8,33.79 32.12,70.08 42.31,108.56l0.01 0.05c-44.46,17.58 -83.87,37.93 -118.44,59.16 -1.5,-9.78 -3.31,-19.59 -5.55,-29.4 -7.27,-31.82 -18.13,-61.89 -32.01,-89.91 -14.21,7.08 -28.48,14.64 -42.71,22.68 20.49,36.35 36.19,76.21 46.06,118.91 -108.65,75.13 -159.3,152.78 -159.3,152.78 144.37,-150.82 369.8,-195.71 453.26,-207.56 -30.52,170.37 -159.58,314.44 -338.95,355.43 -4.05,0.92 -8.09,1.78 -12.13,2.58 17.85,-1.96 35.77,-4.93 53.7,-9.02 251.63,-57.49 409.01,-308.09 351.52,-559.72 -44.75,-195.83 -206.45,-334.56 -394.58,-359.36 -22.92,-3.02 -46.23,-4.36 -69.77,-3.89 -31.51,0.62 -63.44,4.44 -95.38,11.73 -158.73,36.27 -279.93,149.39 -333.38,291.14 56.72,-117.73 164.52,-209.52 301.82,-240.89z"/>
   <path class="fil0" d="M152.24 981.59c0,0 10.96,-4.71 22.72,0.44 11.77,5.15 8.55,29.2 8.55,29.2 0,0 10.1,-2.3 16.83,0.94 6.72,3.23 9.55,18.41 8.53,23.64 -1.02,5.22 -9.15,17.5 -9.15,17.5 0,0 2.01,-2.27 5.48,6.28 3.47,8.55 -2.11,23.27 -4.78,26.61 -2.66,3.34 -7.03,13.53 -8.17,26.58 -1.14,13.04 11.93,16.1 16.14,12.2 1.58,-1.45 3.81,-16.38 6.13,-25.77 2.33,-9.4 -0.23,-19.44 -1.39,-33.31 -1.15,-13.86 1.49,-20.72 3.3,-19.62 1.81,1.1 6.3,13.17 8.36,17.93 2.05,4.77 6.83,25.39 1.9,39.04 -4.93,13.65 -6.71,56.25 14.66,30.43 21.38,-25.81 18.25,-104.66 18.25,-104.66 12.4,19.67 21.14,36.96 4.65,90.96 -9.67,31.66 10.05,35.72 21.24,31.64 11.19,-4.07 17.86,-54.65 25.58,-78.78 7.72,-24.13 -1.77,-57.12 -4.95,-61.4 -3.18,-4.29 -21.15,-54.65 -26.59,-68.11 -5.44,-13.45 -16.67,-19.55 -25.38,-22.92 -8.71,-3.38 -29.7,15.37 -48.55,17.09 -18.86,1.72 -28.85,-6.34 -28.23,-24.28 0.61,-17.94 42.18,-48.67 42.18,-48.67 -23.52,-31.08 -66.43,-57.8 -86.55,-90.93 -22.83,-37.59 -30.79,-47.87 -53.12,-120.18 -44.31,-226.25 71.21,-461.18 290.8,-558.87 175.98,-78.29 372.75,-47.98 515.19,62.06 -153.52,-127.53 -371.95,-165.05 -566.64,-78.43 -233.32,103.8 -372.05,375.19 -300.22,634.41 4.35,20.44 13.47,59.22 26.68,98.39 24.56,72.83 58.89,150.52 58.89,150.52 0,0 17.75,-6.69 32.73,-4.26 14.98,2.43 14.94,24.34 14.94,24.34z"/>
   <path class="fil0" d="M196.65 915.96c4.83,7.34 31.48,-3.06 49.9,-12.85 18.41,-9.8 48.56,21.5 48.56,21.5 0,0 32.98,64.6 41.7,90.99 8.72,26.38 -17.1,100.44 -17.1,100.44 -2.84,3.57 167.98,40.41 292.22,8.63l0.46 -0.14c53.02,-11.89 109.62,-31.16 152.2,-50.1 194.69,-86.62 310.34,-280.09 318.42,-479.5 -13.64,179.48 -121.13,349.95 -298.86,424.22 -77.71,32.47 -125.73,34.77 -125.73,34.77 -100.78,8.56 -176.05,-15.12 -274.41,-45.71l0 0 -29.72 -59.11c0,0 -33.71,-65.43 -54.21,-77.97 -20.5,-12.53 -68.64,-4.93 -68.64,-4.93 -8.33,3.97 -21.79,22.93 -27.74,29.62 -5.96,6.7 -11.87,12.81 -7.04,20.15z"/>
   <path class="fil0" d="M136.01 984.43c11.79,-4.71 3.5,-15.2 1.93,-16.17 -1.57,-0.96 -24.91,-4.51 -38.79,5.33 -13.88,9.83 1.53,19.84 5.52,21.12 3.99,1.27 31.34,-10.28 31.34,-10.28z"/>
   <path class="fil0" d="M118.34 1032.3c12.39,-16.2 38.96,-18.67 49.12,-22.41 10.16,-3.74 5.71,-14.42 -0.21,-17.27 -5.93,-2.84 -46.84,6.84 -50.98,9.54 -4.14,2.71 -9.21,6.28 -9.55,15.63 -0.33,9.35 11.62,14.51 11.62,14.51z"/>
   <path class="fil0" d="M169.66 1054.71c13.86,-3.03 31.88,-11.5 31.2,-19.51 -0.69,-8.03 -6.23,-14.54 -21.38,-14.83 -15.15,-0.29 -47.26,7.18 -52.19,17.61 -4.93,10.43 -7.84,26.38 12.07,33.1 0,0 16.44,-13.34 30.3,-16.36z"/>
   <path class="fil0" d="M192.51 1060.69c-5.88,-4.95 -14.63,0.21 -14.63,0.21 0,0 -30.27,13.27 -34.88,19.8 -4.62,6.54 6.26,17.86 12.53,21.51 6.26,3.64 20.51,-4.42 33.67,-17.82 13.16,-13.39 9.19,-18.75 3.31,-23.7z"/>
  </g>
  <g id="_1931552776688">
   <path class="fil0" d="M1652.38 146.9c0,-54.01 -35.36,-91.54 -85.98,-91.54 -50.62,0 -85.73,37.78 -85.73,91.54 0,54.01 34.87,91.55 85.49,91.55 50.86,0 86.22,-37.78 86.22,-91.55zm-32.7 0c0,37.3 -20.83,61.76 -53.28,61.76 -32.45,0 -53.28,-23.98 -53.28,-61.76 0,-37.78 20.83,-61.75 53.28,-61.75 32.45,0 53.28,23.97 53.28,61.75z"/>
   <path class="fil0" d="M1708.09 99.19c0,-10.41 -6.78,-16.71 -15.5,-16.71 -2.66,0 -4.84,0.48 -6.78,1.21 0,-8.48 7.26,-15.02 17.68,-16.96l0 -11.62c-19.37,2.42 -32.94,18.16 -32.94,38.51 0,14.53 8.24,23.74 19.62,23.74 10.66,0 17.92,-7.51 17.92,-18.17zm150.16 136.35l0 -28.57 -89.61 0 88.15 -120.85 0 -27.61 -124 0 0 28.58 85.49 0 -87.42 119.64 0 28.82 127.39 0zm27.12 0l71.69 0c36.57,0 57.64,-17.68 57.64,-47.95 0,-20.59 -9.45,-34.63 -28.1,-40.69 16.71,-7.02 25.43,-21.07 25.43,-40.69 0,-29.55 -21.31,-47.71 -56.19,-47.71l-70.48 0 0 177.04zm67.81 -149.67c17.44,0 27.13,8.23 27.13,23.49 0,15.74 -9.45,24.71 -26.4,24.71l-37.54 0 0 -48.2 36.81 0zm2.66 74.35c17.2,0 27.13,8.48 27.13,23.49 0,15.98 -9.69,24.46 -27.13,24.46l-39.47 0 0 -47.95 39.47 0z"/>
   <path class="fil0" d="M2152.98 235.54l0 -28.57 -78.95 0 0 -46.99 70.72 0 0 -27.37 -70.72 0 0 -45.53 78.95 0 0 -28.58 -109.95 0 0 177.04 109.95 0zm64.66 -177.04l-31 0 0 177.04 31 0 0 -37.78 29.3 -37.54 43.84 75.32 35.84 0 -59.33 -101.47 58.61 -75.56 -36.57 0 -71.69 93 0 -93zm163.23 0l-31 0 0 177.04 31 0 0 -177.04zm29.06 49.41c0,27.12 15.74,44.32 45.77,50.86l28.1 6.3c14.53,3.15 20.58,10.17 20.58,22.04 0,14.77 -13.07,23.73 -33.66,23.73 -19.86,0 -31.97,-8.96 -32.21,-23.98l-31 0c0.73,31.73 25.43,51.83 63.21,51.83 39,0 64.66,-21.31 64.66,-54.25 0,-26.4 -14.77,-41.9 -45.05,-48.44l-27.85 -6.05c-14.77,-3.39 -21.56,-10.41 -21.56,-23.01 0,-14.77 12.35,-23.98 31.48,-23.98 17.44,0 28.34,8.96 29.06,24.22l31 0c-0.97,-31.97 -23.73,-51.83 -59.58,-51.83 -37.3,0 -62.97,21.55 -62.97,52.55z"/>
   <polygon class="fil0" points="2545.56,87.08 2597.39,87.08 2597.39,235.54 2628.38,235.54 2628.38,87.08 2680.21,87.08 2680.21,58.5 2545.56,58.5 "/>
   <path class="fil0" d="M2858.46 146.9c0,-54.01 -35.36,-91.54 -85.98,-91.54 -50.62,0 -85.73,37.78 -85.73,91.54 0,54.01 34.87,91.55 85.49,91.55 50.86,0 86.22,-37.78 86.22,-91.55zm-32.7 0c0,37.3 -20.83,61.76 -53.28,61.76 -32.45,0 -53.28,-23.98 -53.28,-61.76 0,-37.78 20.83,-61.75 53.28,-61.75 32.45,0 53.28,23.97 53.28,61.75zm92.03 88.64l0 -125.45 83.31 125.45 30.52 0 0 -177.04 -30.52 0 0 125.46 -83.07 -125.46 -30.76 0 0 177.04 30.52 0z"/>
   <path class="fil0" d="M1520.88 526.16l0 -63.45c0,-22.04 -0.24,-38.75 -1.94,-49.41l44.81 112.86 28.57 0 45.05 -113.1c-1.69,12.59 -1.69,23.01 -1.69,58.61l0 54.49 30.03 0 0 -177.04 -30.52 0 -57.15 140.95 -57.16 -140.95 -30.03 0 0 177.04 30.03 0zm215.06 -177.04l-31 0 0 177.04 31 0 0 -177.04z"/>
   <path class="fil0" d="M1806.17 349.13l-31 0 0 177.04 105.11 0 0 -28.58 -74.11 0 0 -148.46zm130.29 0l-31 0 0 177.04 105.11 0 0 -28.58 -74.11 0 0 -148.46zm130.3 0l-31 0 0 177.04 31 0 0 -177.04zm81.86 107.29l0 69.75 31 0 0 -69.75 59.58 -107.29 -33.66 0 -34.63 64.42c-3.15,5.81 -4.12,8.72 -6.3,13.07 -1.94,-4.36 -3.63,-8.23 -6.3,-13.07l-34.87 -64.42 -34.63 0 59.82 107.29zm209.01 -107.29l-31 0 0 177.04 31 0 0 -177.04zm178.25 190.36l19.86 -17.68 -18.89 -21.07c13.81,-15.99 21.55,-37.78 21.55,-63.21 0,-54.01 -35.36,-91.54 -85.98,-91.54 -50.62,0 -85.73,37.78 -85.73,91.54 0,54.01 34.87,91.54 85.49,91.54 16.71,0 31.73,-4.12 44.32,-11.38l19.38 21.8zm-10.17 -101.96c0,15.5 -3.63,28.82 -10.17,38.99l-23.49 -26.4 -19.62 17.68 23.49 26.4c-7.02,3.39 -14.77,5.09 -23.49,5.09 -32.45,0 -53.28,-23.98 -53.28,-61.76 0,-37.78 20.83,-61.75 53.28,-61.75 32.45,0 53.28,23.97 53.28,61.75z"/>
   <path class="fil0" d="M2565.66 377.7l51.83 0 0 148.46 31 0 0 -148.46 51.83 0 0 -28.57 -134.66 0 0 28.57zm189.39 -28.57l-31 0 0 177.04 31 0 0 -177.04z"/>
   <path class="fil0" d="M2784.1 398.53c0,27.12 15.74,44.32 45.77,50.86l28.1 6.3c14.53,3.15 20.58,10.17 20.58,22.04 0,14.77 -13.08,23.74 -33.66,23.74 -19.86,0 -31.97,-8.96 -32.21,-23.98l-31 0c0.73,31.73 25.43,51.83 63.21,51.83 38.99,0 64.66,-21.31 64.66,-54.25 0,-26.4 -14.77,-41.9 -45.04,-48.44l-27.85 -6.05c-14.77,-3.39 -21.55,-10.42 -21.55,-23.01 0,-14.77 12.35,-23.98 31.48,-23.98 17.44,0 28.33,8.96 29.06,24.22l31 0c-0.97,-31.97 -23.73,-51.83 -59.58,-51.83 -37.3,0 -62.97,21.55 -62.97,52.55zm315.08 38.99c0,-54.01 -35.36,-91.54 -85.98,-91.54 -50.62,0 -85.73,37.78 -85.73,91.54 0,54.01 34.87,91.54 85.49,91.54 50.86,0 86.22,-37.78 86.22,-91.54zm-32.7 0c0,37.3 -20.83,61.76 -53.28,61.76 -32.45,0 -53.28,-23.98 -53.28,-61.76 0,-37.78 20.83,-61.75 53.28,-61.75 32.45,0 53.28,23.97 53.28,61.75zm125.21 88.64c51.34,0 86.7,-36.09 86.7,-88.15 0,-52.8 -36.09,-88.88 -88.4,-88.88l-62 0 0 177.04 63.7 0zm-4.6 -148.46c36.57,0 58.61,22.77 58.61,60.31 0,36.81 -21.56,59.58 -56.92,59.58l-29.79 0 0 -119.88 28.09 0zm151.12 -28.57l-31 0 0 177.04 31 0 0 -177.04z"/>
   <path class="fil0" d="M3420.08 456.41l0 69.75 31 0 0 -69.75 59.58 -107.29 -33.66 0 -34.63 64.42c-3.15,5.81 -4.12,8.72 -6.3,13.07 -1.94,-4.36 -3.64,-8.23 -6.3,-13.07l-34.87 -64.42 -34.63 0 59.82 107.29z"/>
   <path class="fil0" d="M1521.84 816.79l0 -75.08 78.47 0 0 75.08 31 0 0 -177.04 -31 0 0 73.14 -78.47 0 0 -73.14 -31 0 0 177.04 31 0zm163.96 0l14.29 -40.93 66.12 0 14.29 40.93 32.7 0 -63.93 -177.04 -31.73 0 -63.94 177.04 32.21 0zm43.59 -124.24c1.69,-4.84 3.15,-10.17 3.87,-13.56 0.48,3.63 2.18,8.96 3.64,13.56l20.34 57.16 -47.95 0 20.1 -57.16zm136.11 124.24l0 -63.45c0,-22.04 -0.24,-38.75 -1.94,-49.41l44.81 112.86 28.57 0 45.05 -113.1c-1.69,12.59 -1.69,23.01 -1.69,58.61l0 54.5 30.03 0 0 -177.04 -30.52 0 -57.15 140.95 -57.16 -140.95 -30.03 0 0 177.04 30.03 0zm215.06 -177.04l-31 0 0 177.04 31 0 0 -37.78 29.3 -37.54 43.84 75.32 35.84 0 -59.34 -101.48 58.61 -75.56 -36.57 0 -71.69 93 0 -93z"/>
   <path class="fil0" d="M2361.75 728.15c0,-54.01 -35.36,-91.55 -85.98,-91.55 -50.62,0 -85.73,37.78 -85.73,91.55 0,54.01 34.87,91.54 85.49,91.54 50.86,0 86.22,-37.78 86.22,-91.54zm-32.7 0c0,37.29 -20.83,61.75 -53.28,61.75 -32.45,0 -53.28,-23.97 -53.28,-61.75 0,-37.78 20.83,-61.76 53.28,-61.76 32.45,0 53.28,23.97 53.28,61.76zm92.51 88.64l0 -66.12 38.02 0 30.03 66.12 33.91 0 -33.66 -72.65c20.83,-8.48 31.97,-25.43 31.97,-49.17 0,-34.87 -23.49,-55.22 -63.69,-55.22l-67.57 0 0 177.04 31 0zm0 -149.43l36.57 0c19.62,0 31.24,9.93 31.24,27.61 0,17.93 -11.62,28.34 -31.24,28.34l-36.57 0 0 -55.94zm162.27 -27.61l-31 0 0 177.04 105.11 0 0 -28.58 -74.11 0 0 -148.46zm130.29 0l-31 0 0 177.04 31 0 0 -177.04zm70.23 0l-31 0 0 177.04 31 0 0 -37.78 29.31 -37.54 43.84 75.32 35.84 0 -59.34 -101.48 58.61 -75.56 -36.57 0 -71.69 93 0 -93z"/>
   <path class="fil0" d="M1489.63 1042.74c0,41.66 27.13,67.57 70,67.57 43.11,0 70.23,-26.16 70.23,-67.57l0 -112.37 -31 0 0 110.44c0,25.19 -14.05,39.47 -39.23,39.47 -25.19,0 -39,-14.05 -39,-39.47l0 -110.44 -31 0 0 112.37zm220.87 -5.08l0 69.75 31 0 0 -69.75 59.58 -107.29 -33.66 0 -34.63 64.42c-3.15,5.81 -4.12,8.72 -6.3,13.07 -1.94,-4.36 -3.63,-8.23 -6.3,-13.07l-34.87 -64.42 -34.63 0 59.82 107.29zm111.41 5.08c0,41.66 27.12,67.57 69.99,67.57 43.11,0 70.23,-26.16 70.23,-67.57l0 -112.37 -31 0 0 110.44c0,25.19 -14.05,39.47 -39.23,39.47 -25.19,0 -39,-14.05 -39,-39.47l0 -110.44 -31 0 0 112.37z"/>
   <path class="fil0" d="M1989.98 979.78c0,27.12 15.74,44.32 45.77,50.86l28.1 6.3c14.53,3.15 20.58,10.17 20.58,22.04 0,14.77 -13.08,23.74 -33.66,23.74 -19.86,0 -31.97,-8.96 -32.21,-23.98l-31 0c0.73,31.73 25.43,51.83 63.21,51.83 38.99,0 64.66,-21.31 64.66,-54.25 0,-26.4 -14.77,-41.9 -45.04,-48.44l-27.85 -6.05c-14.77,-3.39 -21.55,-10.41 -21.55,-23.01 0,-14.77 12.35,-23.98 31.48,-23.98 17.44,0 28.33,8.96 29.06,24.22l31 0c-0.97,-31.97 -23.73,-51.83 -59.58,-51.83 -37.3,0 -62.97,21.55 -62.97,52.55z"/>
   <path class="fil0" d="M2174.52 1107.41l0 -75.08 78.47 0 0 75.08 31 0 0 -177.04 -31 0 0 73.14 -78.47 0 0 -73.14 -31 0 0 177.04 31 0zm178.73 0l0 -63.45c0,-22.04 -0.24,-38.74 -1.94,-49.4l44.81 112.86 28.57 0 45.05 -113.1c-1.69,12.59 -1.69,23.01 -1.69,58.61l0 54.49 30.03 0 0 -177.04 -30.52 0 -57.15 140.95 -57.16 -140.95 -30.03 0 0 177.04 30.03 0zm199.32 0l14.29 -40.93 66.12 0 14.29 40.93 32.7 0 -63.93 -177.04 -31.73 0 -63.93 177.04 32.21 0zm43.59 -124.24c1.69,-4.84 3.15,-10.17 3.87,-13.56 0.48,3.63 2.18,8.96 3.64,13.56l20.34 57.15 -47.95 0 20.1 -57.15zm95.91 -3.39c0,27.12 15.74,44.32 45.77,50.86l28.1 6.3c14.53,3.15 20.58,10.17 20.58,22.04 0,14.77 -13.07,23.74 -33.66,23.74 -19.86,0 -31.97,-8.96 -32.21,-23.98l-31 0c0.73,31.73 25.43,51.83 63.21,51.83 39,0 64.66,-21.31 64.66,-54.25 0,-26.4 -14.77,-41.9 -45.05,-48.44l-27.85 -6.05c-14.77,-3.39 -21.56,-10.41 -21.56,-23.01 0,-14.77 12.35,-23.98 31.48,-23.98 17.44,0 28.34,8.96 29.06,24.22l31 0c-0.97,-31.97 -23.73,-51.83 -59.58,-51.83 -37.3,0 -62.97,21.55 -62.97,52.55z"/>
   <polygon class="fil0" points="2876.61,930.37 2845.61,930.37 2845.61,1107.41 2876.61,1107.41 "/>
  </g>
  <g style="clip-path:url(#id0)">
   <image style="clip-path:url(#id1)" x="1181.49" y="-2.34" width="131.75" height="1176.66" xlink:href="mihu_full_logo_Images\mihu_full_logo_ImgID1.png"/>
  </g>
  <polygon class="fil0" points="1274.07,385.18 1219.47,385.18 1219.47,37.37 1274.07,37.37 "/>
  <polygon class="fil1" points="1274.07,764.57 1219.47,764.57 1219.47,400.97 1274.07,400.97 "/>
  <polygon class="fil2" points="1274.07,1134.98 1219.47,1134.98 1219.47,787.18 1274.07,787.18 "/>
  <polygon class="fil3" points="1274.07,416.86 1219.47,416.86 1219.47,376.11 1274.07,376.11 "/>
  <polygon class="fil3" points="1274.07,791.9 1219.47,791.9 1219.47,751.16 1274.07,751.16 "/>
 </g>
</svg>
